Joe Cocker Live At Montreux was recorded July 8, 1987 at the Casino in Montreux. This would be the first of 4 appearances at the Montreux Jazz Festival that the owner of one of the most recognizable and unique voices in music has made. CockerΓÇÖs 70-minute performance features a number of hits, including "With A Little Help From My Friends", "Feeling Alright", and "You Are So Beautiful".

Tracklisting

1. Dear Landlord
2. You Can Leave Your Hat On
3. Feeling Alright
4. Civilized Man
5. Inner City Blues
6. Just Like Always
7. Up Where We Belong
8. Seven Days
9. Shelter Me
10. With A Little Help From My Friends
11. You Are So Beautiful
12. WatchinΓÇÖ The River Flow
13. Guilty 



Format                           : Matroska
Format version                   : Version 2
File size                        : 1.37 GiB
Duration                         : 1h 13mn
Overall bit rate                 : 2 642 Kbps
Encoded date                     : UTC 2013-05-27 13:22:02
Writing application              : mkvmerge v6.1.0 ('Old Devil') built on Mar  2 2013 14:32:37
Writing library                  : libebml v1.3.0 + libmatroska v1.4.0

Video
ID                               : 1
Format                           : AVC
Format/Info                      : Advanced Video Codec
Format profile                   : High@L3.0
Format settings, CABAC           : Yes
Format settings, ReFrames        : 4 frames
Codec ID                         : V_MPEG4/ISO/AVC
Duration                         : 1h 13mn
Bit rate                         : 2 193 Kbps
Width                            : 656 pixels
Height                           : 480 pixels
Display aspect ratio             : 4:3
Frame rate                       : 29.970 fps
Color space                      : YUV
Chroma subsampling               : 4:2:0
Bit depth                        : 8 bits
Scan type                        : Progressive
Bits/(Pixel*Frame)               : 0.232
Stream size                      : 1.11 GiB (81%)
Writing library                  : x264 core 130 r2273 b3065e6


Audio
ID                               : 2
Format                           : AC-3
Format/Info                      : Audio Coding 3
Mode extension                   : CM (complete main)
Codec ID                         : A_AC3
Duration                         : 1h 13mn
Bit rate mode                    : Constant
Bit rate                         : 448 Kbps
Channel(s)                       : 6 channels
Channel positions                : Front: L C R, Side: L R, LFE
Sampling rate                    : 48.0 KHz
Bit depth                        : 16 bits
Compression mode                 : Lossy
Stream size                      : 237 MiB (17%)

Menu
00:00:00.000                     : en:Chapter 01
00:04:39.167                     : en:Chapter 02
00:09:15.734                     : en:Chapter 03
00:13:22.635                     : en:Chapter 04
00:18:17.603                     : en:Chapter 05
00:24:27.070                     : en:Chapter 06
00:29:38.737                     : en:Chapter 07
00:34:07.371                     : en:Chapter 08
00:41:27.605                     : en:Chapter 09
00:46:46.372                     : en:Chapter 10
00:55:46.372                     : en:Chapter 11
01:00:05.372                     : en:Chapter 12
01:10:03.006                     : en:Chapter 13
01:13:54.006                     : en:Chapter 14

